<svg width="210" height="38" viewBox="0 0 210 38" fill="none" xmlns="http://www.w3.org/2000/svg">
    <g clip-path="url(#clip0_2555_12412)">
        <path d="M7.09608 2.5515C7.07297 3.20692 6.80997 3.83011 6.35835 4.29955C5.90674 4.76898 5.2989 5.051 4.65337 5.09061C4.00784 5.051 3.4 4.76898 2.94838 4.29955C2.49677 3.83011 2.23376 3.20692 2.21065 2.5515C2.23324 1.8968 2.49411 1.27377 2.94293 0.802602C3.39175 0.331437 3.99673 0.045518 4.64115 0C5.28775 0.0425791 5.89571 0.327209 6.34707 0.798668C6.79842 1.27013 7.06101 1.8948 7.08387 2.5515M0 10.6395V9.90874L7.09608 9.28944V25.1806L9.722 26.1714V26.9022H0.280912V26.1714L2.89461 25.1806V11.4198L0 10.6395Z"
              fill="currentColor"/>
        <path d="M26.1737 12.0391C26.8137 11 27.7197 10.1564 28.795 9.59807C29.8704 9.03971 31.075 8.78752 32.2804 8.86833C37.0071 8.86833 37.862 10.9244 37.862 15.2347V25.2177L40.7933 26.1715V26.9022H30.656V26.1715L33.3552 25.2177V16.2256C33.3552 13.5502 33.3552 10.5528 30.4606 10.5528C29.6187 10.6452 28.8223 10.9869 28.1707 11.5354C27.519 12.0838 27.0411 12.8147 26.7966 13.6369C26.3729 14.8603 26.1984 16.1581 26.2836 17.4518V25.2177L28.7263 26.1715V26.9022H19.3219V26.1715L21.9111 25.2177V11.5065L19.2119 10.7262V9.98307L25.8317 9.27707L26.1737 12.0391Z"
              fill="currentColor"/>
        <path d="M57.1961 4.64471V9.73533H61.3121V11.2588H57.1961V20.3377C57.1961 23.6199 57.1961 25.7132 59.3701 25.7132C60.1761 25.6879 60.9657 25.4761 61.6785 25.0939L61.996 26.2086C60.6673 27.0577 59.1203 27.4887 57.5503 27.4472C53.703 27.4472 52.8725 25.6017 52.8725 21.6134C52.8725 20.796 52.8725 19.8051 52.8725 18.7399V11.3083H49.9657V9.73533H52.9092V5.7966L57.1961 4.64471Z"
              fill="currentColor"/>
        <path d="M83.5286 16.4361V16.2255C83.5286 14.2562 83.0522 10.3546 80.3897 10.3546C77.7271 10.3546 76.8233 13.7607 76.5058 16.4361H83.5286ZM76.4203 18.9133C76.4203 22.4061 77.1409 26.1095 81.3057 26.1095C82.4538 26.1095 84.2003 25.5645 86.6919 23.0997L87.4857 24.1277C85.4949 26.4068 83.6507 27.6825 80.6095 27.6825C75.2478 27.6825 71.6814 24.6851 71.6814 18.4798C71.6814 13.1043 74.7714 9.07886 80.2309 9.07886C84.9209 9.07886 87.6934 12.6088 87.6934 17.2907C87.6934 17.5384 87.6934 17.749 87.6934 17.9967H76.4569L76.4203 18.9133Z"
              fill="currentColor"/>
        <path d="M105.733 19.9661C108.273 19.9661 108.872 17.6995 108.872 15.4824C108.872 13.2653 108.517 10.1936 105.782 10.1936C103.046 10.1936 102.594 12.6956 102.594 14.9498C102.594 17.204 102.948 19.9661 105.684 19.9661M100.97 32.0052C100.97 34.9159 103.412 36.3155 106.05 36.3155C108.688 36.3155 111.363 34.47 111.363 31.6336C111.363 28.7973 108.029 28.6362 105.965 28.6362C103.034 28.6362 100.97 29.5404 100.97 32.0052ZM101.763 23.1245C101.763 24.6851 103.986 24.6851 106.16 24.6851C111.522 24.6851 114.71 25.9237 114.71 30.6428C114.71 35.3618 110.386 38 105.586 38C101.824 38 97.7329 36.6004 97.7329 32.4139C97.7381 31.2836 98.1529 30.1946 98.8983 29.3542C99.6437 28.5137 100.668 27.9805 101.776 27.8559C100.988 27.699 100.283 27.2595 99.7895 26.6179C99.296 25.9763 99.0471 25.1757 99.0886 24.3631C99.0886 23.1245 99.7237 21.6506 101.934 20.5359C100.871 20.1034 99.9563 19.3631 99.3048 18.4072C98.6532 17.4513 98.2935 16.3221 98.2703 15.1604C98.2703 11.5808 101.592 8.9674 105.684 8.9674C107.462 8.95273 109.204 9.4838 110.679 10.4909C111.12 9.93551 111.678 9.48788 112.312 9.18125C112.946 8.87462 113.641 8.71686 114.343 8.71969C115.213 8.66379 116.076 8.91306 116.786 9.42568L115.833 12.708C115.523 12.1797 115.098 11.7308 114.59 11.3958C114.081 11.0608 113.504 10.8486 112.902 10.7757C112.671 10.7858 112.443 10.8424 112.234 10.9424C112.024 11.0423 111.836 11.1836 111.681 11.3579C112.167 11.855 112.551 12.4448 112.811 13.0931C113.071 13.7415 113.201 14.4357 113.195 15.1356C113.195 18.7894 109.824 21.3286 105.733 21.3286C104.985 21.334 104.239 21.2508 103.51 21.0808C103.192 21.2542 101.849 21.9478 101.849 23.1369"
              fill="currentColor"/>
        <path d="M125.568 10.7262V9.98302L131.992 9.28941L132.383 12.0391C132.878 11.1376 133.606 10.3895 134.488 9.87471C135.37 9.35989 136.373 9.09765 137.39 9.11601C138.377 9.09139 139.347 9.38165 140.163 9.94587L138.734 13.9713C138.025 12.7327 137.305 11.5808 135.68 11.5808C132.7 11.5808 132.468 15.0365 132.468 17.3774V25.1434L135.913 26.1714V26.9022H125.678V26.1714L128.267 25.0567V11.5065L125.568 10.7262Z"
              fill="currentColor"/>
        <path d="M156.663 2.55152C156.663 3.20851 156.406 3.8386 155.948 4.30316C155.49 4.76772 154.868 5.02871 154.221 5.02871C153.573 5.02871 152.951 4.76772 152.493 4.30316C152.035 3.8386 151.778 3.20851 151.778 2.55152C151.778 1.89453 152.035 1.26445 152.493 0.799891C152.951 0.335329 153.573 0.0743408 154.221 0.0743408C154.868 0.0743408 155.49 0.335329 155.948 0.799891C156.406 1.26445 156.663 1.89453 156.663 2.55152ZM149.555 10.6395V9.90876L156.663 9.30185V25.1806L159.277 26.1715V26.9022H149.836V26.1715L152.45 25.1806V11.4198L149.555 10.6395Z"
              fill="currentColor"/>
        <path d="M176.095 4.64471V9.73533H180.223V11.2588H176.095V20.3377C176.095 23.6199 176.095 25.7132 178.269 25.7132C179.075 25.6879 179.865 25.4761 180.578 25.0939L180.895 26.2086C179.567 27.0591 178.02 27.4902 176.449 27.4472C172.602 27.4472 171.772 25.6017 171.772 21.6134C171.772 20.796 171.772 19.8051 171.772 18.7399V11.3083H168.84V9.73533H171.772V5.7966L176.095 4.64471Z"
              fill="currentColor"/>
        <path d="M198.58 9.73535V10.3918L196.516 11.4198L200.681 21.5267C200.681 21.5267 202.55 17.1297 204.931 11.135L202.745 10.3918V9.73535H209.963V10.3918L207.631 11.296L196.321 37.3807L193.072 36.972C196.235 31.4603 198.385 26.9022 198.385 26.9022L191.753 11.457L189.31 10.3918V9.73535H198.58Z"
              fill="currentColor"/>
    </g>
    <defs>
        <clipPath id="clip0_2555_12412">
            <rect width="210" height="38" fill="white"/>
        </clipPath>
    </defs>
</svg>
