<svg width="36" height="36" viewBox="0 0 36 36" fill="none" xmlns="http://www.w3.org/2000/svg">
    <g clip-path="url(#clip0_2105_3186)">
        <path
                d="M24 31.5H7.5C6.675 31.5 5.96875 31.2063 5.38125 30.6188C4.79375 30.0313 4.5 29.325 4.5 28.5V7.5C4.5 6.675 4.79375 5.96875 5.38125 5.38125C5.96875 4.79375 6.675 4.5 7.5 4.5H28.5C29.325 4.5 30.0313 4.79375 30.6188 5.38125C31.2063 5.96875 31.5 6.675 31.5 7.5V24L24 31.5ZM22.5 28.5V25.5C22.5 24.675 22.7938 23.9688 23.3813 23.3813C23.9688 22.7938 24.675 22.5 25.5 22.5H28.5V7.5H7.5V28.5H22.5ZM16.5 24H19.5V15H24V12H12V15H16.5V24Z"
                fill="currentColor"/>
    </g>
    <defs>
        <clipPath id="clip0_2105_3186">
            <rect width="36" height="36" fill="currentColor"/>
        </clipPath>
    </defs>
</svg>
