<svg width="24" height="24" viewBox="0 0 24 24" fill="none" xmlns="http://www.w3.org/2000/svg">
<rect width="24" height="24" rx="12" fill="white"/>
<path d="M12 14.1824C12.2893 14.1824 12.5669 14.0674 12.7715 13.8628C12.976 13.6583 13.0909 13.3808 13.0909 13.0914V5.45515C13.0909 5.06542 12.883 4.70528 12.5455 4.51041C12.208 4.31554 11.792 4.31554 11.4545 4.51041C11.117 4.70528 10.9092 5.06542 10.9092 5.45515V13.0914C10.9092 13.3809 11.0241 13.6583 11.2286 13.8628C11.4331 14.0674 11.7107 14.1824 12 14.1824Z" fill="#D3141C"/>
<path d="M13.6364 17.819C13.6364 18.7228 12.9037 19.4554 12 19.4554C11.0964 19.4554 10.3636 18.7228 10.3636 17.819C10.3636 16.9153 11.0964 16.1826 12 16.1826C12.9037 16.1826 13.6364 16.9153 13.6364 17.819Z" fill="#D3141C"/>
<path d="M12 0C8.8175 0 5.76497 1.26435 3.51473 3.51473C1.26435 5.7653 0 8.8175 0 12C0 15.1825 1.26435 18.235 3.51473 20.4853C5.7653 22.7356 8.8175 24 12 24C15.1825 24 18.235 22.7356 20.4853 20.4853C22.7356 18.2347 24 15.1825 24 12C24 8.8175 22.7356 5.76497 20.4853 3.51473C18.2347 1.26435 15.1825 0 12 0ZM12 21.8184C9.39607 21.8184 6.89874 20.784 5.05759 18.9427C3.2163 17.1014 2.18189 14.6041 2.18189 12.0003C2.18189 9.39644 3.2163 6.89902 5.05759 5.05787C6.89888 3.21659 9.39616 2.18217 12 2.18217C14.6038 2.18217 17.1013 3.21659 18.9424 5.05787C20.7837 6.89916 21.8181 9.39644 21.8181 12.0003C21.8181 14.6041 20.7837 17.1015 18.9424 18.9427C17.1011 20.784 14.6038 21.8184 12 21.8184Z" fill="#D3141C"/>
</svg>
